<svg width="56" height="56" viewBox="0 0 56 56" fill="none" xmlns="http://www.w3.org/2000/svg">
<path d="M5.25 19.25H50.75C53.6445 19.25 56 16.8945 56 14C56 11.1055 53.6445 8.75 50.75 8.75H5.25C2.3555 8.75 0 11.1055 0 14C0 16.8945 2.3555 19.25 5.25 19.25ZM5.25 12.25H50.75C51.716 12.25 52.5 13.0357 52.5 14C52.5 14.966 51.716 15.75 50.75 15.75H5.25C4.284 15.75 3.5 14.966 3.5 14C3.5 13.0357 4.284 12.25 5.25 12.25ZM50.75 22.75H5.25C2.3555 22.75 0 25.1055 0 28C0 30.8945 2.3555 33.25 5.25 33.25H50.75C53.6445 33.25 56 30.8945 56 28C56 25.1055 53.6445 22.75 50.75 22.75ZM50.75 29.75H5.25C4.284 29.75 3.5 28.966 3.5 28C3.5 27.034 4.284 26.25 5.25 26.25H50.75C51.716 26.25 52.5 27.034 52.5 28C52.5 28.966 51.716 29.75 50.75 29.75ZM50.75 36.75H5.25C2.3555 36.75 0 39.1055 0 42C0 44.8945 2.3555 47.25 5.25 47.25H50.75C53.6445 47.25 56 44.8945 56 42C56 39.1055 53.6445 36.75 50.75 36.75ZM50.75 43.75H5.25C4.284 43.75 3.5 42.966 3.5 42C3.5 41.034 4.284 40.25 5.25 40.25H50.75C51.716 40.25 52.5 41.034 52.5 42C52.5 42.966 51.716 43.75 50.75 43.75Z" fill="url(#paint0_linear_20_111)"/>
<defs>
<linearGradient id="paint0_linear_20_111" x1="28" y1="8.75" x2="28" y2="47.25" gradientUnits="userSpaceOnUse">
<stop stop-color="#F9B992"/>
<stop offset="0.291667" stop-color="#EFAE89"/>
<stop offset="0.645833" stop-color="#BF7A56"/>
<stop offset="1" stop-color="#BA6D45"/>
</linearGradient>
</defs>
</svg>
