<svg width="75" height="75" viewBox="0 0 75 75" fill="none" xmlns="http://www.w3.org/2000/svg">
<path fill-rule="evenodd" clip-rule="evenodd" d="M51.5696 9.90235C49.7438 8.12813 47.1774 7.01016 44.55 7.01016C41.9227 7.01016 39.3422 8.12813 37.5071 9.90235C35.6813 8.12813 33.1149 7.01016 30.4875 7.01016C27.8602 7.01016 25.2797 8.12813 23.4446 9.90235C21.6188 8.12813 19.0524 7.01016 16.425 7.01016C11.25 7.01016 7.05005 11.2102 7.05005 16.3852C7.05005 19.0102 8.16802 21.5953 9.94224 23.4352C8.16802 25.2656 7.05005 27.8414 7.05005 30.4688C7.05005 33.0961 8.16802 35.6719 9.94224 37.5047C8.16802 39.3422 7.05005 41.9274 7.05005 44.5524C7.05005 47.182 8.16802 49.7508 9.94224 51.5742C8.16802 53.4188 7.05005 56.0156 7.05005 58.6383C7.05005 63.8109 11.25 68.0133 16.425 68.0133C19.0571 68.0133 21.6211 66.893 23.4446 65.1141C25.2774 66.8906 27.8579 68.0133 30.4875 68.0133C33.1196 68.0133 35.6836 66.893 37.5071 65.1141C39.3399 66.8906 41.9204 68.0133 44.55 68.0133C47.1821 68.0133 49.7461 66.893 51.5696 65.1141C53.4024 66.8906 55.9829 68.0133 58.6125 68.0133C63.7852 68.0133 67.9875 63.8109 67.9875 58.6383C67.9875 56.0133 66.8649 53.4188 65.0907 51.5742C66.8672 49.7508 67.9875 47.182 67.9875 44.5524C67.9875 41.9274 66.8672 39.3422 65.0907 37.5047C66.8672 35.6742 67.9875 33.0961 67.9875 30.4688C67.9875 27.8414 66.8672 25.2656 65.0907 23.4352C66.8672 21.5977 67.9875 19.0102 67.9875 16.3852C67.9875 11.2102 63.7852 7.01016 58.6125 7.01016C55.9852 7.01016 53.4047 8.12813 51.5696 9.90235ZM60.1618 21.2273C62.0251 20.5734 63.2954 18.4008 63.3 16.3852C63.3047 13.7977 61.1977 11.6977 58.6125 11.6977C56.6368 11.6977 54.4266 12.9727 53.7751 14.8383C53.7751 14.8383 53.2852 16.4063 51.5626 16.4063C49.8399 16.4063 49.35 14.8359 49.35 14.8359C48.6985 12.975 46.6313 11.6977 44.55 11.6977C42.5743 11.6977 40.3641 12.9727 39.7126 14.8359C39.7126 14.8359 39.2133 16.4063 37.5001 16.4063C35.7868 16.4063 35.2875 14.8359 35.2875 14.8359C34.636 12.975 32.5688 11.6977 30.4875 11.6977C28.5118 11.6977 26.3016 12.9727 25.65 14.8359C25.65 14.8359 25.1415 16.4063 23.4375 16.4063C21.7336 16.4063 21.225 14.8383 21.225 14.8383C20.5735 12.975 18.3961 11.6977 16.425 11.6977C13.8375 11.6977 11.7375 13.7977 11.7375 16.3852C11.7375 18.3984 13.0079 20.5711 14.8711 21.2273C14.8711 21.2273 16.4391 21.6984 16.4391 23.4375C16.4391 25.1766 14.8711 25.65 14.8711 25.65C13.0102 26.3039 11.7375 28.3852 11.7375 30.4688C11.7375 32.5523 13.0102 34.6359 14.8711 35.2898C14.8711 35.2898 16.4485 35.7773 16.4485 37.5117C16.4485 39.2461 14.8711 39.7125 14.8711 39.7125C13.0079 40.3664 11.7375 42.4688 11.7375 44.5524C11.7375 46.5234 13.0125 48.6984 14.8711 49.3523C14.8711 49.3523 16.3852 49.8024 16.4415 51.5625C16.4954 53.2641 14.8711 53.7727 14.8711 53.7727C13.0079 54.4289 11.7375 56.6625 11.7375 58.6383C11.7375 61.2258 13.8375 63.3258 16.425 63.3258C18.511 63.3258 20.5758 62.0391 21.2227 60.1711C21.6704 59.0695 22.5446 58.5633 23.4165 58.5938C24.525 58.6359 25.2469 59.175 25.6524 60.1711C25.6524 60.1711 27.0563 63.3586 30.4875 63.3258C32.5735 63.3047 34.6383 62.0391 35.2852 60.1711C35.7188 59.0742 36.6235 58.5633 37.5188 58.5797C38.4211 58.5938 39.3165 59.1445 39.7149 60.1711C40.8938 61.7625 42.4571 63.3258 44.55 63.3258C46.636 63.3258 48.7008 62.0391 49.3477 60.1711C50.3555 57.7992 53.079 58.2984 53.7774 60.1711C53.7774 60.1711 54.6071 63.075 58.6125 63.3258C61.193 63.4852 63.3 61.2258 63.3 58.6383C63.3 56.55 62.0274 54.4289 60.1618 53.775C58.2001 52.957 57.9071 50.3742 60.1618 49.35C62.0227 48.6984 63.3 46.6359 63.3 44.5524C63.3 42.4664 62.0251 40.3641 60.1618 39.7102C60.1618 39.7102 58.5938 39.2883 58.5938 37.5C58.5938 35.7633 60.1618 35.2898 60.1618 35.2898C62.0227 34.6359 63.2532 32.5242 63.3 30.4688C63.3422 28.5844 62.0227 26.3016 60.1618 25.65C60.1618 25.65 58.5938 25.1836 58.5938 23.4375C58.5938 21.7453 60.1618 21.2273 60.1618 21.2273Z" fill="url(#paint0_linear_307_2)"/>
<path d="M51.5508 25.7578C52.8387 25.7578 53.8828 24.7137 53.8828 23.4258C53.8828 22.1378 52.8387 21.0938 51.5508 21.0938C50.2628 21.0938 49.2188 22.1378 49.2188 23.4258C49.2188 24.7137 50.2628 25.7578 51.5508 25.7578Z" fill="url(#paint1_linear_307_2)"/>
<path d="M51.5508 39.8437C52.8387 39.8437 53.8828 38.7997 53.8828 37.5117C53.8828 36.2238 52.8387 35.1797 51.5508 35.1797C50.2628 35.1797 49.2188 36.2238 49.2188 37.5117C49.2188 38.7997 50.2628 39.8437 51.5508 39.8437Z" fill="url(#paint2_linear_307_2)"/>
<path d="M51.5508 53.9273C52.8387 53.9273 53.8828 52.8833 53.8828 51.5953C53.8828 50.3074 52.8387 49.2633 51.5508 49.2633C50.2628 49.2633 49.2188 50.3074 49.2188 51.5953C49.2188 52.8833 50.2628 53.9273 51.5508 53.9273Z" fill="url(#paint3_linear_307_2)"/>
<path d="M37.4883 25.7578C38.7762 25.7578 39.8203 24.7137 39.8203 23.4258C39.8203 22.1378 38.7762 21.0938 37.4883 21.0938C36.2003 21.0938 35.1562 22.1378 35.1562 23.4258C35.1562 24.7137 36.2003 25.7578 37.4883 25.7578Z" fill="url(#paint4_linear_307_2)"/>
<path d="M37.4883 39.8437C38.7762 39.8437 39.8203 38.7997 39.8203 37.5117C39.8203 36.2238 38.7762 35.1797 37.4883 35.1797C36.2003 35.1797 35.1562 36.2238 35.1562 37.5117C35.1562 38.7997 36.2003 39.8437 37.4883 39.8437Z" fill="url(#paint5_linear_307_2)"/>
<path d="M37.4883 53.9273C38.7762 53.9273 39.8203 52.8833 39.8203 51.5953C39.8203 50.3074 38.7762 49.2633 37.4883 49.2633C36.2003 49.2633 35.1562 50.3074 35.1562 51.5953C35.1562 52.8833 36.2003 53.9273 37.4883 53.9273Z" fill="url(#paint6_linear_307_2)"/>
<path d="M23.4258 25.7578C24.7137 25.7578 25.7578 24.7137 25.7578 23.4258C25.7578 22.1378 24.7137 21.0938 23.4258 21.0938C22.1378 21.0938 21.0938 22.1378 21.0938 23.4258C21.0938 24.7137 22.1378 25.7578 23.4258 25.7578Z" fill="url(#paint7_linear_307_2)"/>
<path d="M23.4258 39.8437C24.7137 39.8437 25.7578 38.7997 25.7578 37.5117C25.7578 36.2238 24.7137 35.1797 23.4258 35.1797C22.1378 35.1797 21.0938 36.2238 21.0938 37.5117C21.0938 38.7997 22.1378 39.8437 23.4258 39.8437Z" fill="url(#paint8_linear_307_2)"/>
<path d="M23.4258 53.9273C24.7137 53.9273 25.7578 52.8833 25.7578 51.5953C25.7578 50.3074 24.7137 49.2633 23.4258 49.2633C22.1378 49.2633 21.0938 50.3074 21.0938 51.5953C21.0938 52.8833 22.1378 53.9273 23.4258 53.9273Z" fill="url(#paint9_linear_307_2)"/>
<defs>
<linearGradient id="paint0_linear_307_2" x1="37.5188" y1="7.01016" x2="37.5188" y2="68.0133" gradientUnits="userSpaceOnUse">
<stop stop-color="#F9B992"/>
<stop offset="0.328125" stop-color="#EFAE89"/>
<stop offset="0.692708" stop-color="#BF7A56"/>
<stop offset="1" stop-color="#BA6D45"/>
</linearGradient>
<linearGradient id="paint1_linear_307_2" x1="51.5508" y1="21.0938" x2="51.5508" y2="25.7578" gradientUnits="userSpaceOnUse">
<stop stop-color="#F9B992"/>
<stop offset="0.328125" stop-color="#EFAE89"/>
<stop offset="0.692708" stop-color="#BF7A56"/>
<stop offset="1" stop-color="#BA6D45"/>
</linearGradient>
<linearGradient id="paint2_linear_307_2" x1="51.5508" y1="35.1797" x2="51.5508" y2="39.8437" gradientUnits="userSpaceOnUse">
<stop stop-color="#F9B992"/>
<stop offset="0.328125" stop-color="#EFAE89"/>
<stop offset="0.692708" stop-color="#BF7A56"/>
<stop offset="1" stop-color="#BA6D45"/>
</linearGradient>
<linearGradient id="paint3_linear_307_2" x1="51.5508" y1="49.2633" x2="51.5508" y2="53.9273" gradientUnits="userSpaceOnUse">
<stop stop-color="#F9B992"/>
<stop offset="0.328125" stop-color="#EFAE89"/>
<stop offset="0.692708" stop-color="#BF7A56"/>
<stop offset="1" stop-color="#BA6D45"/>
</linearGradient>
<linearGradient id="paint4_linear_307_2" x1="37.4883" y1="21.0938" x2="37.4883" y2="25.7578" gradientUnits="userSpaceOnUse">
<stop stop-color="#F9B992"/>
<stop offset="0.328125" stop-color="#EFAE89"/>
<stop offset="0.692708" stop-color="#BF7A56"/>
<stop offset="1" stop-color="#BA6D45"/>
</linearGradient>
<linearGradient id="paint5_linear_307_2" x1="37.4883" y1="35.1797" x2="37.4883" y2="39.8437" gradientUnits="userSpaceOnUse">
<stop stop-color="#F9B992"/>
<stop offset="0.328125" stop-color="#EFAE89"/>
<stop offset="0.692708" stop-color="#BF7A56"/>
<stop offset="1" stop-color="#BA6D45"/>
</linearGradient>
<linearGradient id="paint6_linear_307_2" x1="37.4883" y1="49.2633" x2="37.4883" y2="53.9273" gradientUnits="userSpaceOnUse">
<stop stop-color="#F9B992"/>
<stop offset="0.328125" stop-color="#EFAE89"/>
<stop offset="0.692708" stop-color="#BF7A56"/>
<stop offset="1" stop-color="#BA6D45"/>
</linearGradient>
<linearGradient id="paint7_linear_307_2" x1="23.4258" y1="21.0938" x2="23.4258" y2="25.7578" gradientUnits="userSpaceOnUse">
<stop stop-color="#F9B992"/>
<stop offset="0.328125" stop-color="#EFAE89"/>
<stop offset="0.692708" stop-color="#BF7A56"/>
<stop offset="1" stop-color="#BA6D45"/>
</linearGradient>
<linearGradient id="paint8_linear_307_2" x1="23.4258" y1="35.1797" x2="23.4258" y2="39.8437" gradientUnits="userSpaceOnUse">
<stop stop-color="#F9B992"/>
<stop offset="0.328125" stop-color="#EFAE89"/>
<stop offset="0.692708" stop-color="#BF7A56"/>
<stop offset="1" stop-color="#BA6D45"/>
</linearGradient>
<linearGradient id="paint9_linear_307_2" x1="23.4258" y1="49.2633" x2="23.4258" y2="53.9273" gradientUnits="userSpaceOnUse">
<stop stop-color="#F9B992"/>
<stop offset="0.328125" stop-color="#EFAE89"/>
<stop offset="0.692708" stop-color="#BF7A56"/>
<stop offset="1" stop-color="#BA6D45"/>
</linearGradient>
</defs>
</svg>
