<svg width="76" height="76" viewBox="0 0 76 76" fill="none" xmlns="http://www.w3.org/2000/svg">
<g clip-path="url(#clip0_69_76)">
<path d="M58.7513 46.5338H17.5846C11.3963 46.5338 6.36401 41.5133 6.36401 35.3406C6.36401 29.3764 11.0508 24.4859 16.9399 24.151C16.7504 23.33 16.6539 22.4887 16.6539 21.6426C16.6539 15.757 21.2108 10.9154 26.9807 10.459C27.4395 4.68781 32.2824 0.133331 38.1679 0.133331C44.0547 0.133331 48.8963 4.68901 49.3539 10.4602C55.1251 10.9166 59.6808 15.7594 59.6808 21.6462C59.6808 22.4958 59.5842 23.3419 59.3948 24.1641C65.2827 24.499 69.9718 29.3835 69.9718 35.3406C69.9718 41.5133 64.9383 46.5338 58.7513 46.5338ZM17.5846 27.7081C13.3685 27.7081 9.93896 31.1317 9.93896 35.3406C9.93896 39.5412 13.3685 42.9588 17.5846 42.9588H58.7513C62.9673 42.9588 66.3957 39.5412 66.3957 35.3406C66.3957 31.1388 62.9673 27.7212 58.7513 27.7212C58.2174 27.7212 57.6705 27.7808 57.1271 27.8988C56.4478 28.0453 55.7376 27.7832 55.3181 27.2231C54.8999 26.6642 54.8451 25.9111 55.1787 25.2974C55.7853 24.1832 56.1058 22.92 56.1058 21.6462C56.1058 17.4301 52.6751 13.9994 48.459 13.9994C48.2111 13.9994 47.968 14.0137 47.7261 14.0375C47.2018 14.0863 46.6703 13.8993 46.2926 13.5227C45.916 13.1461 45.7266 12.6218 45.7766 12.0915C45.7981 11.8484 45.8136 11.603 45.8136 11.3539C45.8136 7.13784 42.384 3.70828 38.1679 3.70828C33.9519 3.70828 30.5211 7.13784 30.5211 11.3539C30.5211 11.6018 30.5366 11.8472 30.5581 12.0903C30.6081 12.6206 30.4186 13.1449 30.0421 13.5215C29.6655 13.8993 29.1448 14.0875 28.6097 14.0363C28.3666 14.0125 28.1235 13.9982 27.8757 13.9982C23.6596 13.9982 20.2288 17.4277 20.2288 21.6426C20.2288 22.9331 20.5411 24.1605 21.156 25.2902C21.4896 25.9039 21.4348 26.6571 21.0153 27.2171C20.5983 27.776 19.8916 28.0394 19.2076 27.8916C18.6344 27.7677 18.1041 27.7081 17.5846 27.7081Z" fill="url(#paint0_linear_69_76)"/>
<path d="M38.3824 22.5757C32.1942 22.5757 27.1606 17.5421 27.1606 11.3551C27.1606 5.16805 32.1942 0.133331 38.3824 0.133331C44.5694 0.133331 49.603 5.16805 49.603 11.3551C49.603 17.5421 44.5694 22.5757 38.3824 22.5757ZM38.3824 3.70828C34.1663 3.70828 30.7356 7.13784 30.7356 11.3551C30.7356 15.5711 34.1663 19.0007 38.3824 19.0007C42.5985 19.0007 46.028 15.5711 46.028 11.3551C46.028 7.13784 42.5985 3.70828 38.3824 3.70828Z" fill="url(#paint1_linear_69_76)"/>
<path d="M60.3231 75.1333H16.0116C15.2549 75.1333 14.5793 74.6567 14.3267 73.9429L4.92931 47.4168C4.57182 46.417 4.7589 45.2074 5.42027 44.2672C6.00537 43.4355 6.87408 42.9588 7.80714 42.9588H68.53C69.4619 42.9588 70.3318 43.4367 70.9157 44.2684C71.5782 45.2098 71.7629 46.4194 71.4019 47.4251L62.0081 73.9429C61.7555 74.6567 61.081 75.1333 60.3231 75.1333ZM17.2748 71.5584H59.06L67.9246 46.5337H8.41012L17.2748 71.5584Z" fill="url(#paint2_linear_69_76)"/>
<path d="M41.2758 13.1426C40.4071 13.1426 39.6445 12.5074 39.511 11.622C39.3156 10.3267 38.2562 10.0693 37.9368 10.0204C36.9716 9.87626 36.2852 8.98252 36.4127 8.01609C36.5414 7.04967 37.3982 6.36328 38.3706 6.47291C39.772 6.63259 42.5509 7.80279 43.0466 11.0882C43.1932 12.0641 42.5211 12.9745 41.5451 13.1223C41.4558 13.1366 41.3652 13.1426 41.2758 13.1426Z" fill="url(#paint3_linear_69_76)"/>
<path d="M53.9906 41.4835C49.9879 41.4835 45.6598 40.4289 44.4098 40.1012C43.4565 39.851 42.8845 38.8738 43.1347 37.9193C43.385 36.9648 44.3693 36.3952 45.3166 36.6431C50.3382 37.9575 56.6075 38.4615 57.9338 37.1161C58.4093 36.6347 58.3759 36.3452 58.3628 36.2367C58.271 35.449 57.1044 34.3777 56.3441 33.9023C55.51 33.3791 55.2514 32.2792 55.7698 31.4427C56.2905 30.6062 57.388 30.3452 58.2234 30.8612C58.5654 31.0721 61.5755 32.999 61.9127 35.8065C62.0283 36.7706 61.8746 38.216 60.478 39.6281C59.0921 41.0307 56.6111 41.4823 53.9906 41.4835Z" fill="url(#paint4_linear_69_76)"/>
</g>
<defs>
<linearGradient id="paint0_linear_69_76" x1="38.1679" y1="0.133331" x2="38.1679" y2="46.5338" gradientUnits="userSpaceOnUse">
<stop stop-color="#F9B992"/>
<stop offset="0.328125" stop-color="#EFAE89"/>
<stop offset="0.692708" stop-color="#BF7A56"/>
<stop offset="1" stop-color="#BA6D45"/>
</linearGradient>
<linearGradient id="paint1_linear_69_76" x1="38.3818" y1="0.133331" x2="38.3818" y2="22.5757" gradientUnits="userSpaceOnUse">
<stop stop-color="#F9B992"/>
<stop offset="0.328125" stop-color="#EFAE89"/>
<stop offset="0.692708" stop-color="#BF7A56"/>
<stop offset="1" stop-color="#BA6D45"/>
</linearGradient>
<linearGradient id="paint2_linear_69_76" x1="38.1671" y1="42.9588" x2="38.1671" y2="75.1333" gradientUnits="userSpaceOnUse">
<stop stop-color="#F9B992"/>
<stop offset="0.328125" stop-color="#EFAE89"/>
<stop offset="0.692708" stop-color="#BF7A56"/>
<stop offset="1" stop-color="#BA6D45"/>
</linearGradient>
<linearGradient id="paint3_linear_69_76" x1="39.7321" y1="6.46141" x2="39.7321" y2="13.1426" gradientUnits="userSpaceOnUse">
<stop stop-color="#F9B992"/>
<stop offset="0.328125" stop-color="#EFAE89"/>
<stop offset="0.692708" stop-color="#BF7A56"/>
<stop offset="1" stop-color="#BA6D45"/>
</linearGradient>
<linearGradient id="paint4_linear_69_76" x1="52.5097" y1="30.5963" x2="52.5097" y2="41.4835" gradientUnits="userSpaceOnUse">
<stop stop-color="#F9B992"/>
<stop offset="0.328125" stop-color="#EFAE89"/>
<stop offset="0.692708" stop-color="#BF7A56"/>
<stop offset="1" stop-color="#BA6D45"/>
</linearGradient>
<clipPath id="clip0_69_76">
<rect width="75" height="75" fill="white" transform="translate(0.666748 0.133331)"/>
</clipPath>
</defs>
</svg>
