<svg width="40" height="40" viewBox="0 0 46 46" fill="none" xmlns="http://www.w3.org/2000/svg">
<path d="M11.5001 44.5625C10.896 44.5616 10.3075 44.3705 9.81818 44.0163C9.39646 43.6964 9.06487 43.2727 8.85576 42.7864C8.64665 42.3002 8.56716 41.768 8.62505 41.2419L9.67443 29.4688L2.1563 20.6138C1.81666 20.2097 1.58669 19.7251 1.48851 19.2065C1.39032 18.6879 1.42723 18.1527 1.59568 17.6525C1.7509 17.165 2.02979 16.726 2.40517 16.3783C2.78054 16.0307 3.23958 15.7862 3.73755 15.6688L14.6913 13.0813L20.4413 3.01877C20.697 2.56077 21.0702 2.17931 21.5226 1.91378C21.9749 1.64824 22.4899 1.50824 23.0144 1.50824C23.5389 1.50824 24.054 1.64824 24.5063 1.91378C24.9586 2.17931 25.3319 2.56077 25.5876 3.01877L31.3376 13.1531L42.2913 15.7406C42.7893 15.8581 43.2483 16.1026 43.6237 16.4502C43.9991 16.7979 44.278 17.2369 44.4332 17.7244C44.6016 18.2246 44.6385 18.7598 44.5404 19.2784C44.4422 19.797 44.2122 20.2816 43.8726 20.6856L36.3976 29.4688L37.4469 41.2419C37.4968 41.7745 37.4063 42.311 37.1843 42.7977C36.9624 43.2845 36.6168 43.7046 36.1819 44.0163C35.7707 44.3137 35.2881 44.4969 34.7832 44.5474C34.2782 44.5979 33.7689 44.5138 33.3069 44.3038L23.0001 39.6463L12.7076 44.3038C12.3285 44.4765 11.9165 44.5647 11.5001 44.5625ZM23.0719 4.31252L16.8907 14.9931C16.7931 15.1653 16.661 15.3154 16.5027 15.4341C16.3444 15.5529 16.1633 15.6376 15.9707 15.6831L4.47068 18.4C4.38443 18.5438 4.37005 18.63 4.47068 18.7019L12.3051 28.0313C12.4264 28.1759 12.518 28.343 12.5747 28.5231C12.6315 28.7031 12.6522 28.8926 12.6357 29.0806L11.5288 41.4431C11.3994 41.6875 11.5001 41.6875 11.5001 41.6875L22.3963 36.7713C22.5816 36.688 22.7825 36.6449 22.9857 36.6449C23.1889 36.6449 23.3897 36.688 23.5751 36.7713L34.5001 41.6875C34.5001 41.6875 34.6294 41.6875 34.6151 41.5006L33.5082 29.1381C33.4917 28.9501 33.5124 28.7606 33.5691 28.5806C33.6259 28.4005 33.7175 28.2334 33.8388 28.0888L41.6876 18.7594C41.7039 18.7284 41.7125 18.6938 41.7125 18.6588C41.7125 18.6237 41.7039 18.5892 41.6876 18.5581L30.0438 15.6831C29.8512 15.6376 29.6701 15.5529 29.5118 15.4341C29.3535 15.3154 29.2214 15.1653 29.1238 14.9931L23.0719 4.31252Z" fill="url(#paint0_linear_72_111)"/>
<defs>
<linearGradient id="paint0_linear_72_111" x1="23.0144" y1="1.50824" x2="23.0144" y2="44.5626" gradientUnits="userSpaceOnUse">
<stop stop-color="#F9B992"/>
<stop offset="0.328125" stop-color="#EFAE89"/>
<stop offset="0.692708" stop-color="#BF7A56"/>
<stop offset="1" stop-color="#BA6D45"/>
</linearGradient>
</defs>
</svg>
