<svg width="31" height="31" viewBox="0 0 31 31" fill="none" xmlns="http://www.w3.org/2000/svg">
<g clip-path="url(#clip0_28_157)">
<path d="M15.6575 30.7094C7.28384 30.7397 0.393608 23.7707 0.599467 15.2397C0.793217 7.13246 7.51392 0.429919 15.8694 0.526794C24.1461 0.623669 30.9758 7.5139 30.7639 16.0147C30.5641 24.0977 23.8979 30.7578 15.6575 30.7094ZM13.9258 23.4741C13.1872 23.2379 12.4364 23.0623 11.7461 22.7535C10.3415 22.1239 9.45142 21.034 9.16685 19.5022C8.98521 18.5092 9.05787 17.5102 9.17896 16.5172C9.28794 15.6393 9.54224 14.8219 10.2083 14.1862C10.2567 14.1377 10.2627 13.9985 10.2325 13.9258C9.91158 13.0479 9.9479 12.17 10.2083 11.2799C10.287 11.0135 10.4141 10.9832 10.6442 11.0559C11.2497 11.2436 11.7401 11.6069 12.1579 12.067C12.3819 12.3092 12.5817 12.5756 12.7936 12.8299C14.053 12.0125 17.6555 12.0125 18.9754 12.8178C19.2297 12.5211 19.4719 12.2123 19.7444 11.9278C20.1501 11.51 20.6223 11.1891 21.1975 11.0317C21.3852 10.9772 21.4881 11.0196 21.5547 11.2194C21.8514 12.0973 21.9059 12.9752 21.5547 13.8532C21.4881 14.0287 21.4942 14.1438 21.6334 14.277C22.0512 14.6766 22.3055 15.1791 22.4387 15.7422C22.693 16.7897 22.7475 17.8614 22.6749 18.927C22.5961 20.0713 22.1663 21.0764 21.3247 21.8817C20.6163 22.5537 19.7686 22.9534 18.8362 23.1895C18.4971 23.2743 18.1581 23.3348 17.7948 23.4075C18.261 24.1219 18.376 24.8969 18.3579 25.7082C18.3397 26.5741 18.3518 27.4459 18.3518 28.3118C18.3518 28.4147 18.3579 28.5237 18.3639 28.6327C23.8918 27.6276 29.4743 22.1239 28.8627 14.501C28.2876 7.22933 21.8514 1.64691 14.4042 2.36136C7.44732 3.02738 1.8649 9.23344 2.49458 16.7534C3.094 23.8676 8.85806 28.1301 13.3688 28.6871C13.3688 28.1725 13.3688 27.6578 13.3688 27.1371C13.1206 27.1735 12.8965 27.2037 12.6786 27.228C11.0559 27.4096 9.76626 26.683 9.04576 25.236C8.6522 24.4428 8.23443 23.6496 7.45943 23.1411C7.37466 23.0866 7.32623 22.9836 7.25357 22.8928C7.32017 22.8444 7.35044 22.8202 7.38677 22.802C7.43521 22.7838 7.48365 22.7778 7.53208 22.7717C8.07701 22.7354 8.59165 22.8323 8.99732 23.2137C9.26373 23.4619 9.50591 23.7586 9.70572 24.0674C10.4686 25.2602 11.7825 25.7627 13.1206 25.3631C13.3022 25.3086 13.4051 25.2299 13.4233 25.018C13.4596 24.4489 13.617 23.91 13.9258 23.4741Z" fill="url(#paint0_linear_28_157)"/>
</g>
<defs>
<linearGradient id="paint0_linear_28_157" x1="15.6818" y1="0.525757" x2="15.6818" y2="30.7097" gradientUnits="userSpaceOnUse">
<stop stop-color="#F9B992"/>
<stop offset="0.328125" stop-color="#EFAE89"/>
<stop offset="0.692708" stop-color="#BF7A56"/>
<stop offset="1" stop-color="#BA6D45"/>
</linearGradient>
<clipPath id="clip0_28_157">
<rect width="31" height="31" rx="8" fill="white"/>
</clipPath>
</defs>
</svg>
