<svg width="40" height="40" viewBox="0 0 46 46" fill="none" xmlns="http://www.w3.org/2000/svg">
<g clip-path="url(#clip0_72_126)">
<path d="M29.5981 31.625L21.5625 23.5894V10.0625H24.4375V22.3962L31.625 29.5981L29.5981 31.625Z" fill="url(#paint0_linear_72_126)"/>
<path d="M23 2.875C20.319 2.87538 17.6653 3.41374 15.1961 4.45821C12.727 5.50267 10.4925 7.032 8.625 8.95563V2.875H5.75V14.375H17.25V11.5H10.1775C12.8743 8.50324 16.5355 6.5457 20.5254 5.96736C24.5152 5.38902 28.5816 6.22641 32.0183 8.33411C35.455 10.4418 38.0449 13.6866 39.3382 17.5051C40.6316 21.3236 40.5466 25.4744 39.0981 29.2367C37.6496 32.9991 34.9291 36.1352 31.409 38.1005C27.8889 40.0658 23.7917 40.7361 19.8289 39.995C15.866 39.2538 12.288 37.1481 9.71606 34.0435C7.14416 30.9389 5.7409 27.0315 5.75 23H2.875C2.875 26.9803 4.05531 30.8713 6.26667 34.1809C8.47804 37.4904 11.6211 40.0699 15.2985 41.5931C18.9759 43.1163 23.0223 43.5148 26.9262 42.7383C30.8301 41.9618 34.416 40.0451 37.2305 37.2305C40.0451 34.416 41.9618 30.8301 42.7383 26.9262C43.5148 23.0223 43.1163 18.9759 41.5931 15.2985C40.0699 11.6211 37.4904 8.47804 34.1809 6.26667C30.8713 4.05531 26.9803 2.875 23 2.875Z" fill="url(#paint1_linear_72_126)"/>
</g>
<defs>
<linearGradient id="paint0_linear_72_126" x1="26.5938" y1="10.0625" x2="26.5938" y2="31.625" gradientUnits="userSpaceOnUse">
<stop stop-color="#F9B992"/>
<stop offset="0.328125" stop-color="#EFAE89"/>
<stop offset="0.692708" stop-color="#BF7A56"/>
<stop offset="1" stop-color="#BA6D45"/>
</linearGradient>
<linearGradient id="paint1_linear_72_126" x1="23" y1="2.875" x2="23" y2="43.125" gradientUnits="userSpaceOnUse">
<stop stop-color="#F9B992"/>
<stop offset="0.328125" stop-color="#EFAE89"/>
<stop offset="0.692708" stop-color="#BF7A56"/>
<stop offset="1" stop-color="#BA6D45"/>
</linearGradient>
<clipPath id="clip0_72_126">
<rect width="46" height="46" fill="white"/>
</clipPath>
</defs>
</svg>
