<svg width="31" height="31" viewBox="0 0 31 31" fill="none" xmlns="http://www.w3.org/2000/svg">
<g clip-path="url(#clip0_28_152)">
<path d="M26.35 0H4.65C2.08188 0 0 2.08188 0 4.65V26.35C0 28.9181 2.08188 31 4.65 31H26.35C28.9181 31 31 28.9181 31 26.35V4.65C31 2.08188 28.9181 0 26.35 0Z" fill="url(#paint0_linear_28_152)"/>
<path d="M16.5898 21.9785C16.8926 21.918 17.4375 21.7969 17.4375 21.0703C17.4375 21.0703 17.3769 19.2539 18.2246 19.0118C19.0722 18.7696 20.1621 20.7676 21.3125 21.5547C22.1601 22.0996 22.8262 22.0391 22.8262 22.0391L25.914 21.9785C25.914 21.9785 27.4883 21.8575 26.7617 20.586C26.7012 20.4649 26.2168 19.6778 24.4004 18.043C22.5234 16.2266 22.8262 16.5293 25.0664 13.4414C26.459 11.5645 27.0644 10.4141 26.8828 9.99027C26.6406 9.56644 25.6719 9.62699 25.6719 9.62699H22.2207C21.8574 9.62699 21.6758 9.68753 21.4941 9.99027C21.4941 9.99027 20.9492 11.5039 20.2226 12.7149C18.709 15.3184 18.1035 15.4395 17.8008 15.2578C17.2558 14.9551 17.3769 13.8047 17.3769 13.0176C17.3769 10.293 17.8008 9.32425 16.5898 9.08206C15.8027 8.96097 13.0176 8.83988 12.1699 9.2637C11.7461 9.50589 11.5039 9.92972 11.6855 9.99027C11.8672 9.99027 12.4121 10.0508 12.7148 10.4141C13.1992 11.2012 13.2597 14.9551 12.5937 15.3184C11.6855 15.9844 9.38475 11.5645 8.83983 10.1114C8.71873 9.74808 8.53709 9.68753 8.11326 9.56644H4.78319C4.4199 9.56644 3.87498 9.62699 4.11717 10.3535C5.75194 13.7442 9.14256 22.0391 15.2578 21.9785H16.5898Z" fill="white"/>
</g>
<defs>
<linearGradient id="paint0_linear_28_152" x1="15.5" y1="0" x2="15.5" y2="31" gradientUnits="userSpaceOnUse">
<stop stop-color="#F9B992"/>
<stop offset="0.328125" stop-color="#EFAE89"/>
<stop offset="0.692708" stop-color="#BF7A56"/>
<stop offset="1" stop-color="#BA6D45"/>
</linearGradient>
<clipPath id="clip0_28_152">
<rect width="31" height="31" rx="8" fill="white"/>
</clipPath>
</defs>
</svg>
