<svg width="108" height="111" viewBox="0 0 108 111" fill="none" xmlns="http://www.w3.org/2000/svg">
<g clip-path="url(#clip0_20_29)">
<path d="M21.1243 43.1928V78.2648C21.1243 79.4689 22.074 80.4449 23.2455 80.4449H84.759C85.9305 80.4449 86.8802 79.4689 86.8802 78.2648V43.1928C90.422 42.6447 93.6846 40.9342 96.2261 38.2596C99.2613 35.0651 100.933 30.846 100.933 26.3791C100.933 17.0029 93.5108 9.3745 84.3877 9.3745C82.8017 9.3745 81.2526 9.6004 79.7591 10.0474C77.1254 4.03307 71.2042 0 64.6609 0C60.7493 0 56.9678 1.43693 54.002 4.00011C51.0363 1.43693 47.255 0 43.3434 0C36.8003 0 30.8791 4.03307 28.2451 10.0472C26.7517 9.60018 25.2026 9.37428 23.6165 9.37428C14.4937 9.37428 7.07147 17.0025 7.07147 26.3789C7.07147 30.8456 8.74294 35.0651 11.7781 38.2594C14.3201 40.9342 17.5825 42.6447 21.1243 43.1928ZM23.6165 13.7345C25.3663 13.7345 27.0538 14.1024 28.6322 14.8284C29.192 15.0858 29.8324 15.0814 30.3887 14.8174C30.9451 14.5529 31.363 14.054 31.5347 13.4494C33.0547 8.098 37.9105 4.36021 43.3432 4.36021C46.7935 4.36021 50.1073 5.86369 52.4352 8.4852C52.8372 8.93787 53.4059 9.19564 54.0018 9.19564C54.5981 9.19564 55.1668 8.93765 55.5684 8.4852C57.8963 5.86369 61.2106 4.36021 64.6605 4.36021C70.0932 4.36021 74.9489 8.098 76.4691 13.4494C76.6411 14.054 77.0589 14.5529 77.6152 14.8174C78.172 15.0819 78.812 15.0858 79.3716 14.8284C80.9501 14.1024 82.6376 13.7345 84.3871 13.7345C91.1708 13.7345 96.6898 19.4068 96.6898 26.3789C96.6898 33.2924 91.4252 38.8449 84.7046 39.0197C83.5545 39.0498 82.6372 40.0167 82.6372 41.1991V76.0847H25.3667V41.1991C25.3667 40.0167 24.4493 39.0498 23.2993 39.0197C16.5786 38.8452 11.3141 33.2924 11.3141 26.3789C11.3138 19.4068 16.833 13.7345 23.6165 13.7345Z" fill="url(#paint0_linear_20_29)"/>
<path d="M48.7043 89.3195C46.4834 87.3735 43.417 86.6059 40.0705 87.158C40.0397 87.163 40.0093 87.1687 39.9791 87.1752C38.9784 87.3868 37.3549 87.9196 35.1082 88.6572C31.1472 89.9571 25.7223 91.7376 20.6174 92.7518C20.5955 92.7562 20.5738 92.7609 20.5518 92.7657C14.0628 94.2742 8.1734 94.54 6.23805 94.6275C6.05559 94.6358 5.86321 94.6444 5.6681 94.6661C4.90408 94.6924 4.21516 95.1392 3.86585 95.8327C3.81312 95.9366 3.76882 96.0439 3.73338 96.1538C3.6663 96.3608 3.63066 96.5755 3.62559 96.7897C3.6064 97.6016 4.05443 98.3894 4.75179 98.769C4.79081 98.7933 4.84481 98.8273 4.91358 98.8707C10.1094 102.131 15.5617 104.887 20.2704 106.634C27.2141 109.446 34.8974 111 38.9987 111C39.7087 111 40.3116 110.954 40.7843 110.859C46.8042 109.84 51.8813 103.433 51.8808 96.8425C51.8815 93.7859 50.7532 91.1144 48.7043 89.3195ZM47.6387 96.8428C47.6393 101.354 44.1027 105.895 40.0703 106.56C40.0395 106.565 40.0091 106.571 39.9789 106.578C38.0581 106.984 29.6962 105.769 21.7985 102.565C21.7786 102.557 21.7588 102.55 21.7386 102.542C18.9884 101.524 15.9578 100.133 12.8714 98.4843C15.3752 98.1984 18.3442 97.7472 21.4551 97.026C26.7962 95.9621 32.3449 94.141 36.3985 92.8106C38.3241 92.1786 39.992 91.6312 40.7904 91.4552C42.8704 91.1226 44.7018 91.5419 45.9524 92.6376C47.0559 93.6047 47.6391 95.0587 47.6387 96.8428C47.6387 96.8428 47.6387 96.8423 47.6387 96.8428Z" fill="url(#paint1_linear_20_29)"/>
<path d="M104.271 96.1533C104.085 95.5795 103.682 95.091 103.135 94.8589C102.893 94.7457 102.622 94.6757 102.336 94.6659C102.141 94.6442 101.949 94.6356 101.766 94.6273C99.831 94.5399 93.9414 94.2739 87.4526 92.7655C87.4307 92.7605 87.4089 92.7559 87.387 92.7516C82.2823 91.7376 76.8572 89.9571 72.8963 88.657C70.6494 87.9194 69.0258 87.3867 68.0253 87.1749C67.9949 87.1686 67.9643 87.1628 67.934 87.1578C64.5879 86.6058 61.5213 87.3735 59.3001 89.3193C57.2511 91.1143 56.123 93.7857 56.1232 96.8428C56.1227 103.432 61.2 109.839 67.2197 110.858C67.6926 110.953 68.2949 111 69.0053 111C73.1068 111 80.7906 109.445 87.7336 106.633C92.4423 104.886 97.8948 102.13 103.09 98.8702C103.159 98.8269 103.214 98.7928 103.253 98.7683C104.121 98.2292 104.6 97.1682 104.271 96.1533ZM86.2657 102.542C86.2454 102.549 86.2258 102.557 86.2058 102.565C78.3081 105.769 69.9465 106.984 68.0253 106.578C67.9949 106.571 67.9643 106.565 67.934 106.56C63.9015 105.895 60.3649 101.354 60.3655 96.8428V96.8421C60.3653 95.0581 60.9484 93.6042 62.052 92.6373C63.0229 91.7866 64.344 91.3439 65.8598 91.3439C66.2965 91.3439 66.7489 91.3806 67.214 91.4549C68.0124 91.631 69.6801 92.1782 71.606 92.8103C75.6595 94.1408 81.2082 95.9619 86.5494 97.0257C89.6603 97.7472 92.6292 98.1982 95.133 98.4841C92.0466 100.134 89.0161 101.524 86.2657 102.542Z" fill="url(#paint2_linear_20_29)"/>
<path d="M36.6088 69.6899C37.7803 69.6899 38.73 68.7139 38.73 67.5098V43.0929C38.73 41.8888 37.7803 40.9128 36.6088 40.9128C35.4372 40.9128 34.4876 41.8888 34.4876 43.0929V67.5098C34.4876 68.7136 35.4372 69.6899 36.6088 69.6899Z" fill="url(#paint3_linear_20_29)"/>
<path d="M54.0022 45.4911C55.1738 45.4911 56.1234 44.515 56.1234 43.311V43.0929C56.1234 41.8888 55.1738 40.9128 54.0022 40.9128C52.8307 40.9128 51.881 41.8888 51.881 43.0929V43.311C51.881 44.515 52.8307 45.4911 54.0022 45.4911Z" fill="url(#paint4_linear_20_29)"/>
<path d="M54.0022 69.6899C55.1738 69.6899 56.1234 68.7139 56.1234 67.5098V52.2855C56.1234 51.0814 55.1738 50.1053 54.0022 50.1053C52.8307 50.1053 51.881 51.0814 51.881 52.2855V67.5098C51.881 68.7136 52.8307 69.6899 54.0022 69.6899Z" fill="url(#paint5_linear_20_29)"/>
<path d="M71.3957 69.6899C72.5672 69.6899 73.5168 68.7139 73.5168 67.5098V43.0929C73.5168 41.8888 72.5672 40.9128 71.3957 40.9128C70.2241 40.9128 69.2745 41.8888 69.2745 43.0929V67.5098C69.2745 68.7136 70.2241 69.6899 71.3957 69.6899Z" fill="url(#paint6_linear_20_29)"/>
</g>
<defs>
<linearGradient id="paint0_linear_20_29" x1="54.0021" y1="0" x2="54.0021" y2="80.4449" gradientUnits="userSpaceOnUse">
<stop stop-color="#F9B992"/>
<stop offset="0.317708" stop-color="#EFAE89"/>
<stop offset="0.666667" stop-color="#BF7A56"/>
<stop offset="1" stop-color="#BA6D45"/>
</linearGradient>
<linearGradient id="paint1_linear_20_29" x1="27.7529" y1="86.9835" x2="27.7529" y2="111" gradientUnits="userSpaceOnUse">
<stop stop-color="#F9B992"/>
<stop offset="0.317708" stop-color="#EFAE89"/>
<stop offset="0.666667" stop-color="#BF7A56"/>
<stop offset="1" stop-color="#BA6D45"/>
</linearGradient>
<linearGradient id="paint2_linear_20_29" x1="80.2492" y1="86.9833" x2="80.2492" y2="111" gradientUnits="userSpaceOnUse">
<stop stop-color="#F9B992"/>
<stop offset="0.317708" stop-color="#EFAE89"/>
<stop offset="0.666667" stop-color="#BF7A56"/>
<stop offset="1" stop-color="#BA6D45"/>
</linearGradient>
<linearGradient id="paint3_linear_20_29" x1="36.6088" y1="40.9128" x2="36.6088" y2="69.6899" gradientUnits="userSpaceOnUse">
<stop stop-color="#F9B992"/>
<stop offset="0.317708" stop-color="#EFAE89"/>
<stop offset="0.666667" stop-color="#BF7A56"/>
<stop offset="1" stop-color="#BA6D45"/>
</linearGradient>
<linearGradient id="paint4_linear_20_29" x1="54.0022" y1="40.9128" x2="54.0022" y2="45.4911" gradientUnits="userSpaceOnUse">
<stop stop-color="#F9B992"/>
<stop offset="0.317708" stop-color="#EFAE89"/>
<stop offset="0.666667" stop-color="#BF7A56"/>
<stop offset="1" stop-color="#BA6D45"/>
</linearGradient>
<linearGradient id="paint5_linear_20_29" x1="54.0022" y1="50.1053" x2="54.0022" y2="69.6899" gradientUnits="userSpaceOnUse">
<stop stop-color="#F9B992"/>
<stop offset="0.317708" stop-color="#EFAE89"/>
<stop offset="0.666667" stop-color="#BF7A56"/>
<stop offset="1" stop-color="#BA6D45"/>
</linearGradient>
<linearGradient id="paint6_linear_20_29" x1="71.3957" y1="40.9128" x2="71.3957" y2="69.6899" gradientUnits="userSpaceOnUse">
<stop stop-color="#F9B992"/>
<stop offset="0.317708" stop-color="#EFAE89"/>
<stop offset="0.666667" stop-color="#BF7A56"/>
<stop offset="1" stop-color="#BA6D45"/>
</linearGradient>
<clipPath id="clip0_20_29">
<rect width="108" height="111" fill="white"/>
</clipPath>
</defs>
</svg>
